<svg width="32" height="32" viewBox="0 0 32 32" fill="none" xmlns="http://www.w3.org/2000/svg">
<rect width="32" height="32" fill="#89AEFF"/>
<path d="M21.8615 31C20.7849 31 19.8201 30.7279 19.0931 30.2759C18.7925 30.3221 18.4709 30.3497 18.1493 30.3497C16.2409 30.3497 14.6679 29.4827 14.1926 28.2652C13.5075 28.4543 12.7315 28.5603 11.8507 28.5603C5.5939 28.5603 4.65713 23.2936 4.65713 20.1576V20.1022C4.65713 16.5465 5.65682 14.4112 7.06895 13.1706C5.46107 12.8985 4 11.9347 4 10.1591C4 8.60953 5.09056 7.67333 6.4258 7.2721C5.7477 6.7648 5.2933 6.0269 5.2933 5.03997C5.2933 2.89547 7.38354 1.92237 9.31999 1.92237H14.3324C14.6679 1.92237 15.0035 1.95004 15.3321 2.00999C16.0661 1.53497 17.0518 1.24443 18.1493 1.24443C18.6806 1.24443 19.191 1.31361 19.6524 1.43351C20.2885 1.1568 21.0435 1 21.8684 1C24.1824 1 26 2.26364 26 3.87317V28.1268C26 29.741 24.1824 31 21.8684 31H21.8615Z" fill="#DFFC8E"/>
<path d="M16.6004 9.99001C16.6004 10.5426 16.3978 10.8213 16.0694 10.8213H8.53097C8.20261 10.8213 8 10.5426 8 10.0183C8 9.46576 8.20261 9.1871 8.53097 9.1871H16.0624C16.3908 9.1871 16.5934 9.46576 16.5934 9.99001H16.6004ZM8.65673 20.2625V20.2058C8.65673 16.0165 10.0331 13.8487 12.3526 13.8487C14.6721 13.8487 16.0484 16.0118 16.0484 20.2058V20.2625C16.0484 24.3715 14.6721 26.5063 12.3526 26.5063C10.0331 26.5063 8.65673 24.3715 8.65673 20.2625ZM15.3638 4.7475C15.3638 5.30481 15.1612 5.57875 14.8328 5.57875H9.82347C9.49511 5.57875 9.2925 5.30009 9.2925 4.77584C9.2925 4.21853 9.49511 3.9446 9.82347 3.9446H14.8328C15.1612 3.9446 15.3638 4.22325 15.3638 4.7475ZM14.8328 20.2625V20.2058C14.8328 16.9044 13.9525 15.4592 12.3526 15.4592C10.7527 15.4592 9.89334 16.9044 9.89334 20.2058V20.2625C9.89334 23.4552 10.7527 24.9241 12.3526 24.9241C13.9525 24.9241 14.8328 23.4552 14.8328 20.2625ZM22.3642 3C22.7764 3 23 3.25032 23 3.58093V28.4191C23 28.7544 22.7764 29 22.3642 29C21.952 29 21.7285 28.7497 21.7285 28.4191V15.9315H19.2692V27.7531C19.2692 28.0885 19.0456 28.3341 18.6544 28.3341C18.2632 28.3341 18.0396 28.0837 18.0396 27.7531V3.83124C18.0396 3.49591 18.2632 3.25032 18.6544 3.25032C19.0456 3.25032 19.2692 3.50064 19.2692 3.83124V14.3777H21.7285V3.58093C21.7285 3.2456 21.952 3 22.3642 3Z" fill="black"/>
</svg>
